<?xml version="1.0" encoding="utf-8"?>
<!-- Generator: Adobe Illustrator 23.0.4, SVG Export Plug-In . SVG Version: 6.00 Build 0)  -->
<svg version="1.1" xmlns="http://www.w3.org/2000/svg" xmlns:xlink="http://www.w3.org/1999/xlink" x="0px" y="0px"
	 viewBox="0 0 800 600" style="enable-background:new 0 0 800 600;" xml:space="preserve">
<style type="text/css">
	.st0{fill:#CCCCCC;stroke:#666666;stroke-width:3;stroke-miterlimit:10;}
	.st1{fill:#E6E6E6;stroke:#CCCCCC;stroke-width:7;stroke-miterlimit:10;}
	.st2{fill:#B3B3B3;stroke:#666666;stroke-width:3;stroke-miterlimit:10;}
	.st3{fill:#E6E6E6;stroke:#CCCCCC;stroke-width:8;stroke-miterlimit:10;}
	.st4{fill:#666666;stroke:#4D4D4D;stroke-width:9;stroke-miterlimit:10;}
	.st5{fill:#666666;stroke:#4D4D4D;stroke-width:8;stroke-miterlimit:10;}
	.st6{fill:#F2F2F2;stroke:#E6E6E6;stroke-width:7;stroke-miterlimit:10;}
	.st7{fill:#F2F2F2;stroke:#E6E6E6;stroke-width:8;stroke-miterlimit:10;}
	.st8{fill:none;stroke:#CCCCCC;stroke-width:8;stroke-miterlimit:10;}
	.st9{fill:#999999;stroke:#666666;stroke-width:3;stroke-miterlimit:10;}
</style>
<g id="chairs">
	<path class="st0" d="M229.97,345.82L229.97,345.82c-1.12,4.69-5.82,7.58-10.51,6.46l-86.53-20.63c-4.69-1.12-7.58-5.82-6.46-10.51
		v0c1.12-4.69,5.82-7.58,10.51-6.46l86.53,20.63C228.19,336.43,231.09,341.13,229.97,345.82z"/>
	<path class="st1" d="M225.88,344.87L225.88,344.87c0.56-2.34-0.89-4.7-3.23-5.25l-73.23-17.45c-2.34-0.56-4.7,0.89-5.25,3.23v0
		c-0.56,2.34,0.89,4.7,3.23,5.25l73.23,17.45C222.97,348.66,225.32,347.21,225.88,344.87z"/>
	<path class="st2" d="M120.42,302.77l14.3,3.41c8.84,2.11,14.29,10.98,12.19,19.82v0c-2.11,8.84-10.98,14.29-19.82,12.19l-14.3-3.41
		c-8.84-2.11-14.29-10.98-12.19-19.82l0,0C102.71,306.12,111.58,300.66,120.42,302.77z"/>
	<path class="st3" d="M122.08,311.62l7.15,1.7c4.42,1.05,7.15,5.49,6.09,9.91v0c-1.05,4.42-5.49,7.15-9.91,6.09l-7.15-1.7
		c-4.42-1.05-7.15-5.49-6.09-9.91l0,0C113.23,313.29,117.67,310.57,122.08,311.62z"/>
	<path class="st0" d="M223.43,308.8L223.43,308.8c-2.4,4.18-7.74,5.61-11.91,3.21l-77.1-44.37c-4.18-2.4-5.61-7.74-3.21-11.91v0
		c2.4-4.18,7.74-5.61,11.91-3.21l77.1,44.37C224.4,299.3,225.83,304.63,223.43,308.8z"/>
	<path class="st1" d="M219.78,306.73L219.78,306.73c1.2-2.09,0.48-4.75-1.6-5.96l-65.24-37.55c-2.09-1.2-4.75-0.48-5.96,1.6h0
		c-1.2,2.09-0.48,4.75,1.6,5.96l65.24,37.55C215.91,309.53,218.58,308.82,219.78,306.73z"/>
	<path class="st2" d="M130.63,236.39l12.74,7.33c7.87,4.53,10.58,14.59,6.05,22.46l0,0c-4.53,7.87-14.59,10.58-22.46,6.05
		l-12.74-7.33c-7.87-4.53-10.58-14.59-6.05-22.46l0,0C112.7,234.56,122.76,231.86,130.63,236.39z"/>
	<path class="st3" d="M129.72,245.35l6.37,3.67c3.94,2.27,5.29,7.29,3.03,11.23l0,0c-2.27,3.94-7.29,5.29-11.23,3.03l-6.37-3.67
		c-3.94-2.27-5.29-7.29-3.03-11.23l0,0C120.75,244.44,125.78,243.08,129.72,245.35z"/>
	<path class="st0" d="M232.19,268.79L232.19,268.79c-3.25,3.55-8.77,3.8-12.32,0.55l-65.63-60.05c-3.55-3.25-3.8-8.77-0.55-12.32v0
		c3.25-3.55,8.77-3.8,12.32-0.55l65.63,60.05C235.2,259.72,235.44,265.24,232.19,268.79z"/>
	<path class="st1" d="M229.08,265.98L229.08,265.98c1.63-1.78,1.5-4.54-0.27-6.16L173.26,209c-1.78-1.63-4.54-1.5-6.16,0.27l0,0
		c-1.63,1.78-1.5,4.54,0.27,6.16l55.54,50.82C224.69,267.87,227.45,267.75,229.08,265.98z"/>
	<path class="st2" d="M157.33,177.96l10.85,9.92c6.7,6.13,7.16,16.54,1.03,23.24l0,0c-6.13,6.7-16.54,7.16-23.24,1.03l-10.85-9.92
		c-6.7-6.13-7.16-16.54-1.03-23.24l0,0C140.22,172.29,150.62,171.83,157.33,177.96z"/>
	<path class="st3" d="M154.48,186.51l5.42,4.96c3.35,3.07,3.58,8.27,0.52,11.62l0,0c-3.07,3.35-8.27,3.58-11.62,0.52l-5.42-4.96
		c-3.35-3.07-3.58-8.27-0.52-11.62l0,0C145.93,183.67,151.13,183.44,154.48,186.51z"/>
	<path class="st0" d="M243.57,215.64L243.57,215.64c-3.59,3.21-9.11,2.9-12.32-0.69l-59.27-66.33c-3.21-3.59-2.9-9.11,0.69-12.32
		l0,0c3.59-3.21,9.11-2.9,12.32,0.69l59.27,66.33C247.47,206.91,247.16,212.43,243.57,215.64z"/>
	<path class="st1" d="M240.75,212.52L240.75,212.52c1.8-1.6,1.95-4.36,0.35-6.16l-50.16-56.13c-1.6-1.8-4.36-1.95-6.16-0.35l0,0
		c-1.8,1.6-1.95,4.36-0.35,6.16l50.16,56.13C236.2,213.97,238.96,214.13,240.75,212.52z"/>
	<path class="st2" d="M178.2,117.75l9.79,10.96c6.05,6.77,5.47,17.17-1.31,23.23l0,0c-6.77,6.05-17.17,5.47-23.23-1.31l-9.79-10.96
		c-6.05-6.77-5.47-17.17,1.31-23.23l0,0C161.75,110.39,172.14,110.97,178.2,117.75z"/>
	<path class="st3" d="M174.51,125.97l4.9,5.48c3.03,3.39,2.73,8.59-0.65,11.61h0c-3.39,3.03-8.59,2.73-11.61-0.65l-4.9-5.48
		c-3.03-3.39-2.73-8.59,0.65-11.61l0,0C166.29,122.29,171.49,122.58,174.51,125.97z"/>
	<path class="st0" d="M472.23,512.37L472.23,512.37c-0.15-4.82,3.62-8.84,8.44-9l88.91-2.84c4.82-0.15,8.84,3.62,9,8.44l0,0
		c0.15,4.82-3.62,8.84-8.44,9l-88.91,2.84C476.42,520.96,472.39,517.18,472.23,512.37z"/>
	<path class="st1" d="M476.43,512.21L476.43,512.21c0.08,2.41,2.09,4.3,4.5,4.22l75.24-2.4c2.41-0.08,4.3-2.09,4.22-4.5l0,0
		c-0.08-2.41-2.09-4.3-4.5-4.22l-75.24,2.4C478.24,507.79,476.35,509.8,476.43,512.21z"/>
	<path class="st2" d="M589.25,525.11l-14.69,0.47c-9.08,0.29-16.68-6.84-16.97-15.92v0c-0.29-9.08,6.84-16.68,15.92-16.97
		l14.69-0.47c9.08-0.29,16.68,6.84,16.97,15.92v0C605.46,517.23,598.33,524.82,589.25,525.11z"/>
	<path class="st3" d="M585.32,517.01l-7.35,0.23c-4.54,0.15-8.34-3.42-8.48-7.96l0,0c-0.15-4.54,3.42-8.34,7.96-8.48l7.35-0.23
		c4.54-0.15,8.34,3.42,8.48,7.96l0,0C593.42,513.07,589.86,516.87,585.32,517.01z"/>
	<path class="st0" d="M256.17,499.22L256.17,499.22c0.22,4.81-3.49,8.9-8.31,9.12L159,512.49c-4.81,0.22-8.9-3.49-9.12-8.31v0
		c-0.22-4.81,3.49-8.9,8.31-9.12l88.86-4.14C251.86,490.69,255.94,494.41,256.17,499.22z"/>
	<path class="st1" d="M251.97,499.44L251.97,499.44c-0.11-2.41-2.15-4.27-4.56-4.15l-75.2,3.51c-2.41,0.11-4.27,2.15-4.15,4.56l0,0
		c0.11,2.41,2.15,4.27,4.56,4.15l75.2-3.51C250.23,503.89,252.08,501.85,251.97,499.44z"/>
	<path class="st2" d="M138.98,488.19l14.68-0.68c9.08-0.42,16.78,6.59,17.2,15.67v0c0.42,9.08-6.59,16.78-15.67,17.2l-14.68,0.68
		c-9.08,0.42-16.78-6.59-17.2-15.67l0,0C122.89,496.32,129.9,488.62,138.98,488.19z"/>
	<path class="st3" d="M143.03,496.24l7.34-0.34c4.54-0.21,8.39,3.3,8.6,7.83l0,0c0.21,4.54-3.3,8.39-7.83,8.6l-7.34,0.34
		c-4.54,0.21-8.39-3.3-8.6-7.83v0C134.99,500.3,138.49,496.45,143.03,496.24z"/>
	<path class="st0" d="M247.17,474.22L247.17,474.22c0.22,4.81-3.49,8.9-8.31,9.12L150,487.49c-4.81,0.22-8.9-3.49-9.12-8.31v0
		c-0.22-4.81,3.49-8.9,8.31-9.12l88.86-4.14C242.86,465.69,246.94,469.41,247.17,474.22z"/>
	<path class="st1" d="M242.97,474.44L242.97,474.44c-0.11-2.41-2.15-4.27-4.56-4.15l-75.2,3.51c-2.41,0.11-4.27,2.15-4.15,4.56l0,0
		c0.11,2.41,2.15,4.27,4.56,4.15l75.2-3.51C241.23,478.89,243.08,476.85,242.97,474.44z"/>
	<path class="st2" d="M129.98,463.19l14.68-0.68c9.08-0.42,16.78,6.59,17.2,15.67v0c0.42,9.08-6.59,16.78-15.67,17.2l-14.68,0.68
		c-9.08,0.42-16.78-6.59-17.2-15.67l0,0C113.89,471.32,120.9,463.62,129.98,463.19z"/>
	<path class="st3" d="M134.03,471.24l7.34-0.34c4.54-0.21,8.39,3.3,8.6,7.83l0,0c0.21,4.54-3.3,8.39-7.83,8.6l-7.34,0.34
		c-4.54,0.21-8.39-3.3-8.6-7.83v0C125.99,475.3,129.49,471.45,134.03,471.24z"/>
	<path class="st0" d="M234.17,449.22L234.17,449.22c0.22,4.81-3.49,8.9-8.31,9.12L137,462.49c-4.81,0.22-8.9-3.49-9.12-8.31v0
		c-0.22-4.81,3.49-8.9,8.31-9.12l88.86-4.14C229.86,440.69,233.94,444.41,234.17,449.22z"/>
	<path class="st1" d="M229.97,449.44L229.97,449.44c-0.11-2.41-2.15-4.27-4.56-4.15l-75.2,3.51c-2.41,0.11-4.27,2.15-4.15,4.56l0,0
		c0.11,2.41,2.15,4.27,4.56,4.15l75.2-3.51C228.23,453.89,230.08,451.85,229.97,449.44z"/>
	<path class="st2" d="M116.98,438.19l14.68-0.68c9.08-0.42,16.78,6.59,17.2,15.67v0c0.42,9.08-6.59,16.78-15.67,17.2l-14.68,0.68
		c-9.08,0.42-16.78-6.59-17.2-15.67l0,0C100.89,446.32,107.9,438.62,116.98,438.19z"/>
	<path class="st3" d="M121.03,446.24l7.34-0.34c4.54-0.21,8.39,3.3,8.6,7.83l0,0c0.21,4.54-3.3,8.39-7.83,8.6l-7.34,0.34
		c-4.54,0.21-8.39-3.3-8.6-7.83v0C112.99,450.3,116.49,446.45,121.03,446.24z"/>
	<path class="st0" d="M223.17,418.22L223.17,418.22c0.22,4.81-3.49,8.9-8.31,9.12L126,431.49c-4.81,0.22-8.9-3.49-9.12-8.31v0
		c-0.22-4.81,3.49-8.9,8.31-9.12l88.86-4.14C218.86,409.69,222.94,413.41,223.17,418.22z"/>
	<path class="st1" d="M218.97,418.44L218.97,418.44c-0.11-2.41-2.15-4.27-4.56-4.15l-75.2,3.51c-2.41,0.11-4.27,2.15-4.15,4.56l0,0
		c0.11,2.41,2.15,4.27,4.56,4.15l75.2-3.51C217.23,422.89,219.08,420.85,218.97,418.44z"/>
	<path class="st2" d="M105.98,407.19l14.68-0.68c9.08-0.42,16.78,6.59,17.2,15.67v0c0.42,9.08-6.59,16.78-15.67,17.2l-14.68,0.68
		c-9.08,0.42-16.78-6.59-17.2-15.67l0,0C89.89,415.32,96.9,407.62,105.98,407.19z"/>
	<path class="st3" d="M110.03,415.24l7.34-0.34c4.54-0.21,8.39,3.3,8.6,7.83l0,0c0.21,4.54-3.3,8.39-7.83,8.6l-7.34,0.34
		c-4.54,0.21-8.39-3.3-8.6-7.83v0C101.99,419.3,105.49,415.45,110.03,415.24z"/>
	<path class="st0" d="M231.46,394.77L231.46,394.77c-0.1,4.82-4.09,8.64-8.91,8.53l-88.93-1.91c-4.82-0.1-8.64-4.09-8.53-8.91l0,0
		c0.1-4.82,4.09-8.64,8.91-8.53l88.93,1.91C227.74,385.97,231.56,389.95,231.46,394.77z"/>
	<path class="st1" d="M227.26,394.7L227.26,394.7c0.05-2.41-1.86-4.4-4.27-4.45l-75.26-1.61c-2.41-0.05-4.4,1.86-4.45,4.27l0,0
		c-0.05,2.41,1.86,4.4,4.27,4.45l75.26,1.61C225.21,399.02,227.21,397.11,227.26,394.7z"/>
	<path class="st2" d="M115.29,375.8l14.7,0.32c9.08,0.19,16.29,7.72,16.09,16.8v0c-0.19,9.08-7.72,16.29-16.8,16.09l-14.7-0.32
		c-9.08-0.19-16.29-7.72-16.09-16.8v0C98.68,382.81,106.2,375.6,115.29,375.8z"/>
	<path class="st3" d="M118.79,384.1l7.35,0.16c4.54,0.1,8.14,3.86,8.05,8.4l0,0c-0.1,4.54-3.86,8.14-8.4,8.05l-7.35-0.16
		c-4.54-0.1-8.14-3.86-8.05-8.4l0,0C110.48,387.61,114.24,384,118.79,384.1z"/>
	<path class="st0" d="M482.36,499.12L482.36,499.12c-0.5-4.79,2.98-9.08,7.77-9.58l88.47-9.24c4.79-0.5,9.08,2.98,9.58,7.77v0
		c0.5,4.79-2.98,9.08-7.77,9.58l-88.47,9.24C487.15,507.39,482.86,503.91,482.36,499.12z"/>
	<path class="st1" d="M486.53,498.66L486.53,498.66c0.25,2.4,2.4,4.14,4.79,3.88l74.87-7.82c2.4-0.25,4.14-2.4,3.88-4.79v0
		c-0.25-2.4-2.4-4.14-4.79-3.88l-74.87,7.82C488.02,494.12,486.28,496.26,486.53,498.66z"/>
	<path class="st2" d="M599.99,503.4l-14.62,1.53c-9.04,0.94-17.13-5.62-18.07-14.65v0c-0.94-9.04,5.62-17.13,14.65-18.07l14.62-1.53
		c9.04-0.94,17.13,5.62,18.07,14.65v0C615.58,494.37,609.02,502.46,599.99,503.4z"/>
	<path class="st3" d="M595.48,495.6l-7.31,0.76c-4.52,0.47-8.56-2.81-9.03-7.33v0c-0.47-4.52,2.81-8.56,7.33-9.03l7.31-0.76
		c4.52-0.47,8.56,2.81,9.03,7.33l0,0C603.28,491.09,600,495.13,595.48,495.6z"/>
	<path class="st0" d="M502.36,472.12L502.36,472.12c-0.5-4.79,2.98-9.08,7.77-9.58l88.47-9.24c4.79-0.5,9.08,2.98,9.58,7.77v0
		c0.5,4.79-2.98,9.08-7.77,9.58l-88.47,9.24C507.15,480.39,502.86,476.91,502.36,472.12z"/>
	<path class="st1" d="M506.53,471.66L506.53,471.66c0.25,2.4,2.4,4.14,4.79,3.88l74.87-7.82c2.4-0.25,4.14-2.4,3.88-4.79v0
		c-0.25-2.4-2.4-4.14-4.79-3.88l-74.87,7.82C508.02,467.12,506.28,469.26,506.53,471.66z"/>
	<path class="st2" d="M619.99,476.4l-14.62,1.53c-9.04,0.94-17.13-5.62-18.07-14.65v0c-0.94-9.04,5.62-17.13,14.65-18.07l14.62-1.53
		c9.04-0.94,17.13,5.62,18.07,14.65v0C635.58,467.37,629.02,475.46,619.99,476.4z"/>
	<path class="st3" d="M615.48,468.6l-7.31,0.76c-4.52,0.47-8.56-2.81-9.03-7.33v0c-0.47-4.52,2.81-8.56,7.33-9.03l7.31-0.76
		c4.52-0.47,8.56,2.81,9.03,7.33l0,0C623.28,464.09,620,468.13,615.48,468.6z"/>
	<path class="st1" d="M565.53,431.66L565.53,431.66c0.25,2.4,2.4,4.14,4.79,3.88l74.87-7.82c2.4-0.25,4.14-2.4,3.88-4.79v0
		c-0.25-2.4-2.4-4.14-4.79-3.88l-74.87,7.82C567.02,427.12,565.28,429.26,565.53,431.66z"/>
	<path class="st0" d="M568.36,383.12L568.36,383.12c-0.5-4.79,2.98-9.08,7.77-9.58l88.47-9.24c4.79-0.5,9.08,2.98,9.58,7.77v0
		c0.5,4.79-2.98,9.08-7.77,9.58l-88.47,9.24C573.15,391.39,568.86,387.91,568.36,383.12z"/>
	<path class="st1" d="M591.53,383.66L591.53,383.66c0.25,2.4,2.4,4.14,4.79,3.88l74.87-7.82c2.4-0.25,4.14-2.4,3.88-4.79v0
		c-0.25-2.4-2.4-4.14-4.79-3.88l-74.87,7.82C593.02,379.12,591.28,381.26,591.53,383.66z"/>
	<path class="st2" d="M685.99,387.4l-14.62,1.53c-9.04,0.94-17.13-5.62-18.07-14.65v0c-0.94-9.04,5.62-17.13,14.65-18.07l14.62-1.53
		c9.04-0.94,17.13,5.62,18.07,14.65v0C701.58,378.37,695.02,386.46,685.99,387.4z"/>
	<path class="st3" d="M681.48,379.6l-7.31,0.76c-4.52,0.47-8.56-2.81-9.03-7.33v0c-0.47-4.52,2.81-8.56,7.33-9.03l7.31-0.76
		c4.52-0.47,8.56,2.81,9.03,7.33l0,0C689.28,375.09,686,379.13,681.48,379.6z"/>
	<path class="st0" d="M516.36,443.12L516.36,443.12c-0.5-4.79,2.98-9.08,7.77-9.58l88.47-9.24c4.79-0.5,9.08,2.98,9.58,7.77v0
		c0.5,4.79-2.98,9.08-7.77,9.58l-88.47,9.24C521.15,451.39,516.86,447.91,516.36,443.12z"/>
	<path class="st1" d="M520.53,442.66L520.53,442.66c0.25,2.4,2.4,4.14,4.79,3.88l74.87-7.82c2.4-0.25,4.14-2.4,3.88-4.79v0
		c-0.25-2.4-2.4-4.14-4.79-3.88l-74.87,7.82C522.02,438.12,520.28,440.26,520.53,442.66z"/>
	<path class="st2" d="M633.99,447.4l-14.62,1.53c-9.04,0.94-17.13-5.62-18.07-14.65v0c-0.94-9.04,5.62-17.13,14.65-18.07l14.62-1.53
		c9.04-0.94,17.13,5.62,18.07,14.65v0C649.58,438.37,643.02,446.46,633.99,447.4z"/>
	<path class="st3" d="M629.48,439.6l-7.31,0.76c-4.52,0.47-8.56-2.81-9.03-7.33v0c-0.47-4.52,2.81-8.56,7.33-9.03l7.31-0.76
		c4.52-0.47,8.56,2.81,9.03,7.33l0,0C637.28,435.09,634,439.13,629.48,439.6z"/>
	<path class="st0" d="M530.36,408.12L530.36,408.12c-0.5-4.79,2.98-9.08,7.77-9.58l88.47-9.24c4.79-0.5,9.08,2.98,9.58,7.77v0
		c0.5,4.79-2.98,9.08-7.77,9.58l-88.47,9.24C535.15,416.39,530.86,412.91,530.36,408.12z"/>
	<path class="st1" d="M534.53,407.66L534.53,407.66c0.25,2.4,2.4,4.14,4.79,3.88l74.87-7.82c2.4-0.25,4.14-2.4,3.88-4.79v0
		c-0.25-2.4-2.4-4.14-4.79-3.88l-74.87,7.82C536.02,403.12,534.28,405.26,534.53,407.66z"/>
	<path class="st2" d="M647.99,412.4l-14.62,1.53c-9.04,0.94-17.13-5.62-18.07-14.65v0c-0.94-9.04,5.62-17.13,14.65-18.07l14.62-1.53
		c9.04-0.94,17.13,5.62,18.07,14.65v0C663.58,403.37,657.02,411.46,647.99,412.4z"/>
	<path class="st3" d="M643.48,404.6l-7.31,0.76c-4.52,0.47-8.56-2.81-9.03-7.33v0c-0.47-4.52,2.81-8.56,7.33-9.03l7.31-0.76
		c4.52-0.47,8.56,2.81,9.03,7.33l0,0C651.28,400.09,648,404.13,643.48,404.6z"/>
	<path class="st4" d="M505.58,496.76l-211.89-18.33c-22.48-1.94-39.12-21.74-37.18-44.22l20.02-231.44
		c1.94-22.48,21.74-39.12,44.22-37.18l211.89,18.33c22.48,1.94,39.12,21.74,37.18,44.22L549.8,459.59
		C547.86,482.06,528.06,498.71,505.58,496.76z"/>
	<path class="st4" d="M464.86,530.81l-166.17-14.38c-22.48-1.94-39.12-21.74-37.18-44.22l20.02-231.44
		c1.94-22.48,21.74-39.12,44.22-37.18l166.17,14.38c22.48,1.94,39.12,21.74,37.18,44.22l-20.02,231.44
		C507.14,516.11,487.34,532.75,464.86,530.81z"/>
	<rect x="464" y="407" transform="matrix(0.9963 0.0862 -0.0862 0.9963 44.1867 -41.3982)" class="st5" width="75" height="168"/>
	<polygon class="st5" points="536,576 592,526.48 604,379 548,396.22 	"/>
	<rect x="144" y="375" transform="matrix(0.9963 0.0862 -0.0862 0.9963 40.6835 -14.2619)" class="st5" width="83" height="178"/>
	<polygon class="st5" points="147,369 288.56,378.74 298,533.55 222.5,554 222.5,382.8 	"/>
	
		<rect x="261.18" y="480.09" transform="matrix(0.9963 0.0862 -0.0862 0.9963 45.522 -29.2663)" class="st5" width="201" height="64.87"/>
	<polygon class="st5" points="481,398.18 544.67,371 597,377.18 544.67,413 	"/>
</g>
<g id="Layer_2">
	<path class="st0" d="M265.82,358.9L265.82,358.9c-0.4,6.87-6.3,12.11-13.17,11.71l-126.86-7.46c-6.87-0.4-12.11-6.3-11.71-13.17v0
		c0.4-6.87,6.3-12.11,13.17-11.71l126.86,7.46C260.98,346.13,266.23,352.03,265.82,358.9z"/>
	<path class="st6" d="M259.75,360L259.75,360c0.2-3.44-2.42-6.38-5.85-6.59l-107.35-6.32c-3.44-0.2-6.38,2.42-6.59,5.85l0,0
		c-0.2,3.44,2.42,6.38,5.85,6.59l107.35,6.32C256.6,366.06,259.54,363.44,259.75,360z"/>
	<path class="st2" d="M100.99,325.62l20.96,1.23c12.96,0.76,22.84,11.88,22.08,24.84l0,0c-0.76,12.96-11.88,22.84-24.84,22.08
		l-20.96-1.23c-12.96-0.76-22.84-11.88-22.08-24.84v0C76.91,334.74,88.03,324.86,100.99,325.62z"/>
	<path class="st3" d="M105.54,337.66l10.48,0.62c6.48,0.38,11.42,5.94,11.04,12.42l0,0c-0.38,6.48-5.94,11.42-12.42,11.04
		l-10.48-0.62c-6.48-0.38-11.42-5.94-11.04-12.42l0,0C93.5,342.22,99.06,337.28,105.54,337.66z"/>
	<path class="st0" d="M252.16,361.2L252.16,361.2c-3.45,5.95-11.08,7.98-17.03,4.53L125.2,301.96c-5.95-3.45-7.98-11.08-4.53-17.03
		l0,0c3.45-5.95,11.08-7.98,17.03-4.53l109.92,63.76C253.58,347.62,255.61,355.25,252.16,361.2z"/>
	<path class="st6" d="M246.23,359.46L246.23,359.46c1.73-2.98,0.71-6.79-2.26-8.52l-93.02-53.96c-2.98-1.73-6.79-0.71-8.52,2.26h0
		c-1.73,2.98-0.71,6.79,2.26,8.52l93.02,53.96C240.69,363.45,244.51,362.43,246.23,359.46z"/>
	<path class="st2" d="M119.94,257.3l18.16,10.54c11.23,6.51,15.05,20.89,8.54,32.12l0,0c-6.51,11.23-20.89,15.05-32.12,8.54
		l-18.16-10.54c-11.23-6.51-15.05-20.89-8.54-32.12l0,0C94.34,254.6,108.72,250.78,119.94,257.3z"/>
	<path class="st3" d="M118.59,270.09l9.08,5.27c5.61,3.26,7.52,10.45,4.27,16.06v0c-3.26,5.61-10.45,7.52-16.06,4.27l-9.08-5.27
		c-5.61-3.26-7.52-10.45-4.27-16.06h0C105.79,268.75,112.98,266.84,118.59,270.09z"/>
	<path class="st0" d="M295.49,213.82L295.49,213.82c-4.01,2.66-9.43,1.57-12.09-2.44l-49.19-74.12c-2.66-4.01-1.57-9.43,2.44-12.09
		l0,0c4.01-2.66,9.43-1.57,12.09,2.44l49.19,74.12C300.6,205.75,299.51,211.16,295.49,213.82z"/>
	<path class="st6" d="M293.15,210.34L293.15,210.34c2.01-1.33,2.55-4.04,1.22-6.05l-41.62-62.72c-1.33-2.01-4.04-2.55-6.05-1.22l0,0
		c-2.01,1.33-2.55,4.04-1.22,6.05l41.62,62.72C288.44,211.12,291.15,211.67,293.15,210.34z"/>
	<path class="st0" d="M244.78,107.6l8.13,12.25c5.02,7.57,2.96,17.78-4.61,22.8l0,0c-7.57,5.02-17.78,2.96-22.8-4.61l-8.13-12.25
		c-5.02-7.57-2.96-17.78,4.61-22.8l0,0C229.54,97.97,239.75,100.03,244.78,107.6z"/>
	<path class="st0" d="M372.78,179.22L372.78,179.22c-4.58,1.48-9.5-1.03-10.98-5.62l-27.37-84.64c-1.48-4.58,1.03-9.5,5.62-10.98
		l0,0c4.58-1.48,9.5,1.03,10.98,5.62l27.37,84.64C379.88,172.82,377.37,177.74,372.78,179.22z"/>
	<path class="st6" d="M371.47,175.23L371.47,175.23c2.29-0.74,3.55-3.2,2.81-5.49l-23.16-71.62c-0.74-2.29-3.2-3.55-5.49-2.81l0,0
		c-2.29,0.74-3.55,3.2-2.81,5.49l23.16,71.62C366.72,174.72,369.18,175.97,371.47,175.23z"/>
	<path class="st0" d="M352.6,63.26l4.52,13.99c2.8,8.64-1.95,17.92-10.59,20.71l0,0c-8.64,2.8-17.92-1.95-20.71-10.59l-4.52-13.99
		c-2.8-8.64,1.95-17.92,10.59-20.71l0,0C340.53,49.87,349.8,54.61,352.6,63.26z"/>
	<path class="st0" d="M328.76,193.75L328.76,193.75c-4.36,2.06-9.56,0.2-11.61-4.16l-38.03-80.41c-2.06-4.36-0.2-9.56,4.16-11.61
		l0,0c4.36-2.06,9.56-0.2,11.61,4.16l38.03,80.41C334.98,186.49,333.12,191.69,328.76,193.75z"/>
	<path class="st6" d="M326.95,189.96L326.95,189.96c2.18-1.03,3.11-3.63,2.08-5.81l-32.18-68.05c-1.03-2.18-3.63-3.11-5.81-2.08h0
		c-2.18,1.03-3.11,3.63-2.08,5.81l32.18,68.05C322.17,190.06,324.77,190.99,326.95,189.96z"/>
	<path class="st0" d="M293.83,81.34l6.28,13.29c3.88,8.21,0.38,18.02-7.84,21.9l0,0c-8.21,3.88-18.02,0.38-21.9-7.84l-6.28-13.29
		c-3.88-8.21-0.38-18.02,7.84-21.9l0,0C280.14,69.62,289.94,73.13,293.83,81.34z"/>
	<path class="st0" d="M389.88,174.55L389.88,174.55c-4.78-0.59-8.18-4.94-7.6-9.72l10.83-88.29c0.59-4.78,4.94-8.18,9.72-7.6l0,0
		c4.78,0.59,8.18,4.94,7.6,9.72l-10.83,88.29C399.01,171.73,394.66,175.14,389.88,174.55z"/>
	<path class="st6" d="M390.37,170.38L390.37,170.38c2.39,0.29,4.57-1.41,4.86-3.8l9.16-74.72c0.29-2.39-1.41-4.57-3.8-4.86h0
		c-2.39-0.29-4.57,1.41-4.86,3.8l-9.16,74.72C386.28,167.91,387.98,170.08,390.37,170.38z"/>
	<path class="st0" d="M420.42,60.87l-1.79,14.59c-1.11,9.02-9.31,15.43-18.33,14.33l0,0c-9.02-1.11-15.43-9.31-14.33-18.33
		l1.79-14.59c1.11-9.02,9.31-15.43,18.33-14.33l0,0C415.11,43.65,421.53,51.85,420.42,60.87z"/>
	<path class="st0" d="M544.87,227.76L544.87,227.76c-3.52-3.29-3.7-8.81-0.41-12.33l60.75-64.98c3.29-3.52,8.81-3.7,12.33-0.41v0
		c3.52,3.29,3.7,8.81,0.41,12.33l-60.75,64.98C553.91,230.86,548.39,231.05,544.87,227.76z"/>
	<path class="st6" d="M547.72,224.67L547.72,224.67c1.76,1.65,4.52,1.55,6.16-0.21l51.41-54.99c1.65-1.76,1.55-4.52-0.21-6.16l0,0
		c-1.76-1.65-4.52-1.55-6.16,0.21l-51.41,54.99C545.87,220.27,545.96,223.03,547.72,224.67z"/>
	<path class="st0" d="M636.51,153.88l-10.04,10.74c-6.2,6.64-16.61,6.99-23.25,0.78v0c-6.64-6.2-6.99-16.61-0.78-23.25l10.04-10.74
		c6.2-6.64,16.61-6.99,23.25-0.78v0C642.36,136.83,642.71,147.24,636.51,153.88z"/>
	<path class="st7" d="M627.99,150.94l-5.02,5.37c-3.1,3.32-8.31,3.49-11.63,0.39v0c-3.32-3.1-3.49-8.31-0.39-11.63l5.02-5.37
		c3.1-3.32,8.31-3.49,11.63-0.39l0,0C630.92,142.42,631.09,147.62,627.99,150.94z"/>
	<path class="st0" d="M515.13,203.07L515.13,203.07c-4.01-2.66-5.11-8.08-2.45-12.09l49.17-74.13c2.66-4.01,8.08-5.11,12.09-2.45v0
		c4.01,2.66,5.11,8.08,2.45,12.09l-49.17,74.13C524.56,204.64,519.14,205.74,515.13,203.07z"/>
	<path class="st6" d="M517.43,199.56L517.43,199.56c2.01,1.33,4.71,0.78,6.05-1.22l41.61-62.73c1.33-2.01,0.78-4.71-1.22-6.05v0
		c-2.01-1.33-4.71-0.78-6.05,1.22l-41.61,62.73C514.88,195.52,515.43,198.23,517.43,199.56z"/>
	<path class="st0" d="M593.29,115.06l-8.13,12.25c-5.02,7.57-15.23,9.64-22.8,4.61v0c-7.57-5.02-9.64-15.23-4.61-22.8l8.13-12.25
		c5.02-7.57,15.23-9.64,22.8-4.61l0,0C596.25,97.28,598.31,107.49,593.29,115.06z"/>
	<path class="st7" d="M584.4,113.58l-4.06,6.12c-2.51,3.79-7.62,4.82-11.4,2.31v0c-3.79-2.51-4.82-7.62-2.31-11.4l4.06-6.12
		c2.51-3.79,7.62-4.82,11.4-2.31v0C585.88,104.69,586.91,109.79,584.4,113.58z"/>
	<path class="st0" d="M462.48,189.14L462.48,189.14c-4.06-2.59-5.25-7.99-2.66-12.05l47.87-74.98c2.59-4.06,7.99-5.25,12.05-2.66v0
		c4.06,2.59,5.25,7.99,2.66,12.05l-47.87,74.98C471.93,190.54,466.54,191.73,462.48,189.14z"/>
	<path class="st6" d="M464.72,185.59L464.72,185.59c2.03,1.3,4.73,0.7,6.02-1.33l40.51-63.45c1.3-2.03,0.7-4.73-1.33-6.02l0,0
		c-2.03-1.3-4.73-0.7-6.02,1.33l-40.51,63.45C462.1,181.59,462.69,184.29,464.72,185.59z"/>
	<path class="st0" d="M539.09,99.77l-7.91,12.39c-4.89,7.66-15.06,9.9-22.72,5.01l0,0c-7.66-4.89-9.9-15.06-5.01-22.72l7.91-12.39
		c4.89-7.66,15.06-9.9,22.72-5.01v0C541.73,81.94,543.98,92.11,539.09,99.77z"/>
	<path class="st7" d="M530.18,98.44l-3.96,6.19c-2.44,3.83-7.53,4.95-11.36,2.51v0c-3.83-2.44-4.95-7.53-2.51-11.36l3.96-6.19
		c2.44-3.83,7.53-4.95,11.36-2.51v0C531.5,89.53,532.62,94.61,530.18,98.44z"/>
	<path class="st0" d="M425.13,175.21L425.13,175.21c-4.52-1.66-6.84-6.67-5.18-11.19l30.64-83.51c1.66-4.52,6.67-6.84,11.19-5.18v0
		c4.52,1.66,6.84,6.67,5.18,11.19l-30.64,83.51C434.67,174.55,429.66,176.87,425.13,175.21z"/>
	<path class="st6" d="M426.56,171.26L426.56,171.26c2.26,0.83,4.77-0.33,5.6-2.59L458.09,98c0.83-2.26-0.33-4.77-2.59-5.6l0,0
		c-2.26-0.83-4.77,0.33-5.6,2.59l-25.93,70.67C423.14,167.92,424.3,170.43,426.56,171.26z"/>
	<path class="st0" d="M480.75,71.47l-5.06,13.8c-3.13,8.53-12.58,12.91-21.11,9.78l0,0c-8.53-3.13-12.91-12.58-9.78-21.11l5.06-13.8
		c3.13-8.53,12.58-12.91,21.11-9.78l0,0C479.51,53.49,483.88,62.94,480.75,71.47z"/>
	<path class="st0" d="M263.59,268.05L263.59,268.05c-4.77,4.96-12.66,5.11-17.62,0.34l-91.6-88.08c-4.96-4.77-5.11-12.66-0.34-17.62
		l0,0c4.77-4.96,12.66-5.11,17.62-0.34l91.6,88.08C268.21,255.2,268.36,263.09,263.59,268.05z"/>
	<path class="st6" d="M258.25,264.95L258.25,264.95c2.39-2.48,2.31-6.42-0.17-8.81l-77.51-74.54c-2.48-2.39-6.42-2.31-8.81,0.17l0,0
		c-2.39,2.48-2.31,6.42,0.17,8.81l77.51,74.54C251.93,267.5,255.87,267.43,258.25,264.95z"/>
	<path class="st2" d="M159.9,135.67l15.14,14.56c9.35,9,9.65,23.87,0.65,33.23l0,0c-9,9.35-23.87,9.65-33.23,0.65l-15.14-14.56
		c-9.35-9-9.65-23.87-0.65-33.23l0,0C135.66,126.97,150.54,126.68,159.9,135.67z"/>
	<path class="st3" d="M155.54,147.78l7.57,7.28c4.68,4.5,4.82,11.94,0.32,16.61l0,0c-4.5,4.68-11.94,4.82-16.61,0.32l-7.57-7.28
		c-4.68-4.5-4.82-11.94-0.32-16.61l0,0C143.42,143.43,150.86,143.29,155.54,147.78z"/>
	<path class="st0" d="M259.19,326.84L259.19,326.84c-4.48,5.22-12.35,5.83-17.57,1.35l-96.47-82.72
		c-5.22-4.48-5.83-12.35-1.35-17.57l0,0c4.48-5.22,12.35-5.83,17.57-1.35l96.47,82.72C263.07,313.75,263.67,321.61,259.19,326.84z"
		/>
	<path class="st6" d="M253.68,324.04L253.68,324.04c2.24-2.61,1.94-6.55-0.67-8.79l-81.64-70c-2.61-2.24-6.55-1.94-8.79,0.67v0
		c-2.24,2.61-1.94,6.55,0.67,8.79l81.64,70C247.51,326.96,251.44,326.65,253.68,324.04z"/>
	<path class="st2" d="M148.12,200.59l15.94,13.67c9.85,8.45,10.99,23.28,2.54,33.14l0,0c-8.45,9.85-23.28,10.99-33.14,2.54
		l-15.94-13.67c-9.85-8.45-10.99-23.28-2.54-33.14l0,0C123.43,193.28,138.26,192.14,148.12,200.59z"/>
	<path class="st3" d="M144.45,212.93l7.97,6.83c4.93,4.22,5.5,11.64,1.27,16.57l0,0c-4.22,4.93-11.64,5.5-16.57,1.27l-7.97-6.83
		c-4.93-4.22-5.5-11.64-1.27-16.57l0,0C132.11,209.27,139.53,208.7,144.45,212.93z"/>
	<path class="st0" d="M414.37,197.21L414.37,197.21c-6.79-1.13-11.38-7.55-10.25-14.34l20.86-125.35
		c1.13-6.79,7.55-11.38,14.34-10.25v0c6.79,1.13,11.38,7.55,10.25,14.34l-20.86,125.35C427.58,193.75,421.16,198.34,414.37,197.21z"
		/>
	<path class="st6" d="M413.91,191.05L413.91,191.05c3.39,0.56,6.6-1.73,7.17-5.12l17.65-106.08c0.56-3.39-1.73-6.6-5.12-7.17v0
		c-3.39-0.56-6.6,1.73-7.17,5.12l-17.65,106.08C408.23,187.27,410.52,190.48,413.91,191.05z"/>
	<path class="st2" d="M464.92,36.83l-3.45,20.72c-2.13,12.8-14.24,21.45-27.04,19.32l0,0c-12.8-2.13-21.45-14.24-19.32-27.04
		l3.45-20.72c2.13-12.8,14.24-21.45,27.04-19.32l0,0C458.39,11.92,467.05,24.02,464.92,36.83z"/>
	<path class="st3" d="M452.46,40.08l-1.72,10.36c-1.07,6.4-7.12,10.73-13.52,9.66l0,0c-6.4-1.07-10.73-7.12-9.66-13.52l1.72-10.36
		c1.07-6.4,7.12-10.73,13.52-9.66l0,0C449.2,27.62,453.53,33.68,452.46,40.08z"/>
	<path class="st0" d="M441.1,199.71L441.1,199.71c-6.25-2.89-8.97-10.29-6.08-16.54l53.33-115.34c2.89-6.25,10.29-8.97,16.54-6.08
		l0,0c6.25,2.89,8.97,10.29,6.08,16.54l-53.33,115.34C454.75,199.88,447.34,202.6,441.1,199.71z"/>
	<path class="st6" d="M442.29,193.65L442.29,193.65c3.12,1.44,6.83,0.08,8.27-3.04L495.69,93c1.44-3.12,0.08-6.83-3.04-8.27v0
		c-3.12-1.44-6.83-0.08-8.27,3.04l-45.13,97.61C437.8,188.51,439.16,192.21,442.29,193.65z"/>
	<path class="st2" d="M532.34,58.46l-8.81,19.06c-5.45,11.78-19.41,16.91-31.19,11.47l0,0c-11.78-5.45-16.91-19.41-11.47-31.19
		l8.81-19.06c5.45-11.78,19.41-16.91,31.19-11.47l0,0C532.65,32.72,537.78,46.68,532.34,58.46z"/>
	<path class="st3" d="M519.47,58.3l-4.41,9.53c-2.72,5.89-9.71,8.46-15.6,5.73v0c-5.89-2.72-8.46-9.71-5.73-15.6l4.41-9.53
		c2.72-5.89,9.71-8.46,15.6-5.73l0,0C519.62,45.42,522.19,52.41,519.47,58.3z"/>
	<path class="st0" d="M485.45,200.29L485.45,200.29c-5.78-3.73-7.44-11.45-3.71-17.23L550.65,76.3c3.73-5.78,11.45-7.44,17.23-3.71
		v0c5.78,3.73,7.44,11.45,3.71,17.23l-68.92,106.77C498.94,202.37,491.23,204.03,485.45,200.29z"/>
	<path class="st6" d="M490.47,193.46L490.47,193.46c2.89,1.87,6.75,1.04,8.61-1.86l58.32-90.35c1.87-2.89,1.04-6.75-1.86-8.61v0
		c-2.89-1.87-6.75-1.04-8.61,1.86l-58.32,90.35C486.75,187.74,487.58,191.6,490.47,193.46z"/>
	<path class="st2" d="M595.52,73.17l-11.39,17.64c-7.04,10.9-21.58,14.04-32.49,7v0c-10.9-7.04-14.04-21.58-7-32.49l11.39-17.64
		c7.04-10.9,21.58-14.04,32.49-7l0,0C599.43,47.72,602.56,62.27,595.52,73.17z"/>
	<path class="st3" d="M582.8,71.21l-5.69,8.82c-3.52,5.45-10.79,7.02-16.24,3.5v0c-5.45-3.52-7.02-10.79-3.5-16.24l5.69-8.82
		c3.52-5.45,10.79-7.02,16.24-3.5v0C584.75,58.49,586.32,65.76,582.8,71.21z"/>
	<path class="st0" d="M522.85,221.5L522.85,221.5c-5.12-4.6-5.54-12.48-0.94-17.6l84.95-94.51c4.6-5.12,12.48-5.54,17.6-0.94v0
		c5.12,4.6,5.54,12.48,0.94,17.6l-84.95,94.51C535.85,225.68,527.97,226.1,522.85,221.5z"/>
	<path class="st6" d="M525.78,216.06L525.78,216.06c2.56,2.3,6.5,2.09,8.8-0.47l71.89-79.98c2.3-2.56,2.09-6.5-0.47-8.8v0
		c-2.56-2.3-6.5-2.09-8.8,0.47l-71.89,79.98C523.01,209.82,523.22,213.76,525.78,216.06z"/>
	<path class="st2" d="M651.67,113.41l-14.04,15.62c-8.68,9.65-23.53,10.44-33.19,1.77l0,0c-9.65-8.68-10.44-23.53-1.77-33.19
		l14.04-15.62c8.68-9.65,23.53-10.44,33.19-1.77l0,0C659.56,88.9,660.35,103.76,651.67,113.41z"/>
	<path class="st3" d="M639.42,109.46l-7.02,7.81c-4.34,4.83-11.77,5.22-16.59,0.88v0c-4.83-4.34-5.22-11.77-0.88-16.59l7.02-7.81
		c4.34-4.83,11.77-5.22,16.59-0.88v0C643.36,97.2,643.76,104.63,639.42,109.46z"/>
	<path class="st0" d="M384.2,197.22L384.2,197.22c-6.83,0.82-13.03-4.06-13.85-10.9L355.3,60.14c-0.82-6.83,4.06-13.03,10.9-13.85
		l0,0c6.83-0.82,13.03,4.06,13.85,10.9l15.05,126.18C395.91,190.21,391.03,196.41,384.2,197.22z"/>
	<path class="st6" d="M382.04,191.44L382.04,191.44c3.42-0.41,5.86-3.51,5.45-6.92L374.75,77.73c-0.41-3.42-3.51-5.86-6.92-5.45l0,0
		c-3.42,0.41-5.86,3.51-5.45,6.92l12.74,106.78C375.52,189.41,378.62,191.85,382.04,191.44z"/>
	<path class="st2" d="M387.85,29.11l2.49,20.85c1.54,12.89-7.66,24.58-20.55,26.12h0c-12.89,1.54-24.58-7.66-26.12-20.55
		l-2.49-20.85c-1.54-12.89,7.66-24.58,20.55-26.12l0,0C374.62,7.02,386.31,16.22,387.85,29.11z"/>
	<path class="st3" d="M376.8,35.71l1.24,10.43c0.77,6.44-3.83,12.29-10.28,13.06l0,0c-6.44,0.77-12.29-3.83-13.06-10.28l-1.24-10.43
		c-0.77-6.44,3.83-12.29,10.28-13.06l0,0C370.19,24.67,376.03,29.27,376.8,35.71z"/>
	<path class="st0" d="M356.13,204.97L356.13,204.97c-6.52,2.2-13.59-1.3-15.79-7.83L299.73,76.73c-2.2-6.52,1.3-13.59,7.83-15.79
		l0,0c6.52-2.2,13.59,1.3,15.79,7.83l40.61,120.41C366.15,195.7,362.65,202.77,356.13,204.97z"/>
	<path class="st6" d="M352.82,199.75L352.82,199.75c3.26-1.1,5.01-4.63,3.91-7.89l-34.36-101.9c-1.1-3.26-4.63-5.01-7.89-3.91l0,0
		c-3.26,1.1-5.01,4.63-3.91,7.89l34.36,101.9C346.03,199.1,349.56,200.85,352.82,199.75z"/>
	<path class="st2" d="M325.22,39.67l6.71,19.9c4.15,12.3-2.46,25.63-14.76,29.78l0,0c-12.3,4.15-25.63-2.46-29.78-14.76l-6.71-19.9
		c-4.15-12.3,2.46-25.63,14.76-29.78l0,0C307.74,20.77,321.08,27.38,325.22,39.67z"/>
	<path class="st3" d="M315.77,48.4l3.36,9.95c2.07,6.15-1.23,12.81-7.38,14.89l0,0c-6.15,2.07-12.81-1.23-14.89-7.38l-3.36-9.95
		c-2.07-6.15,1.23-12.81,7.38-14.89v0C307.03,38.95,313.69,42.25,315.77,48.4z"/>
	<path class="st0" d="M310.9,196.87L310.9,196.87c-5.94,3.47-13.57,1.47-17.05-4.47L229.73,82.68c-3.47-5.94-1.47-13.57,4.47-17.05
		l0,0c5.94-3.47,13.57-1.47,17.05,4.47l64.12,109.72C318.84,185.77,316.84,193.4,310.9,196.87z"/>
	<path class="st6" d="M308.61,192.43L308.61,192.43c2.97-1.74,3.97-5.55,2.24-8.52l-54.26-92.85c-1.74-2.97-5.55-3.97-8.52-2.24v0
		c-2.97,1.74-3.97,5.55-2.24,8.52l54.26,92.85C301.82,193.16,305.64,194.16,308.61,192.43z"/>
	<path class="st2" d="M247.21,41.24l10.6,18.13c6.55,11.21,2.77,25.6-8.43,32.15l0,0c-11.21,6.55-25.6,2.77-32.15-8.43l-10.6-18.13
		c-6.55-11.21-2.77-25.6,8.43-32.15l0,0C226.27,26.26,240.66,30.04,247.21,41.24z"/>
	<path class="st3" d="M239.72,51.7l5.3,9.07c3.27,5.6,1.39,12.8-4.22,16.07l0,0c-5.6,3.27-12.8,1.39-16.07-4.22l-5.3-9.07
		c-3.27-5.6-1.39-12.8,4.22-16.07l0,0C229.24,44.21,236.44,46.1,239.72,51.7z"/>
	<path class="st0" d="M280.13,223.64L280.13,223.64c-5.44,4.21-13.27,3.22-17.48-2.23l-77.79-100.48
		c-4.21-5.44-3.22-13.27,2.23-17.48l0,0c5.44-4.21,13.27-3.22,17.48,2.23l77.79,100.48C286.56,211.6,285.57,219.43,280.13,223.64z"
		/>
	<path class="st6" d="M275.3,219.79L275.3,219.79c2.72-2.11,3.22-6.02,1.11-8.74l-65.83-85.03c-2.11-2.72-6.02-3.22-8.74-1.11v0
		c-2.72,2.11-3.22,6.02-1.11,8.74l65.83,85.03C268.66,221.4,272.58,221.9,275.3,219.79z"/>
	<path class="st2" d="M196.81,77.58l12.86,16.61c7.95,10.26,6.07,25.02-4.2,32.97l0,0c-10.26,7.95-25.02,6.07-32.97-4.2
		l-12.86-16.61c-7.95-10.26-6.07-25.02,4.2-32.97l0,0C174.11,65.44,188.87,67.31,196.81,77.58z"/>
	<path class="st3" d="M190.74,88.92l6.43,8.3c3.97,5.13,3.03,12.51-2.1,16.48l0,0c-5.13,3.97-12.51,3.03-16.48-2.1l-6.43-8.3
		c-3.97-5.13-3.03-12.51,2.1-16.48l0,0C179.38,82.85,186.76,83.79,190.74,88.92z"/>
	<path class="st0" d="M541.94,251.54L541.94,251.54c-4.06-5.55-2.85-13.35,2.7-17.41l102.57-75.03c5.55-4.06,13.35-2.85,17.41,2.7v0
		c4.06,5.55,2.85,13.35-2.7,17.41l-102.57,75.03C553.8,258.3,546.01,257.09,541.94,251.54z"/>
	<path class="st6" d="M545.92,246.82L545.92,246.82c2.03,2.78,5.93,3.38,8.71,1.35l86.8-63.49c2.78-2.03,3.38-5.93,1.35-8.71l0,0
		c-2.03-2.78-5.93-3.38-8.71-1.35l-86.8,63.49C544.5,240.14,543.89,244.04,545.92,246.82z"/>
	<path class="st2" d="M690.23,172.23l-16.95,12.4c-10.48,7.66-25.18,5.38-32.84-5.09v0c-7.66-10.48-5.38-25.18,5.09-32.84
		l16.95-12.4c10.48-7.66,25.18-5.38,32.84,5.09v0C702.98,149.87,700.7,164.57,690.23,172.23z"/>
	<path class="st3" d="M679.05,165.85l-8.47,6.2c-5.24,3.83-12.59,2.69-16.42-2.55v0c-3.83-5.24-2.69-12.59,2.55-16.42l8.47-6.2
		c5.24-3.83,12.59-2.69,16.42,2.55v0C685.43,154.67,684.29,162.02,679.05,165.85z"/>
	<path class="st0" d="M534.13,311.43L534.13,311.43c-3.06-6.17-0.54-13.64,5.63-16.7l113.86-56.44c6.17-3.06,13.64-0.54,16.7,5.63
		l0,0c3.06,6.17,0.54,13.64-5.63,16.7l-113.86,56.44C544.66,320.12,537.18,317.6,534.13,311.43z"/>
	<path class="st6" d="M538.85,307.46L538.85,307.46c1.53,3.08,5.27,4.34,8.35,2.82l96.35-47.76c3.08-1.53,4.34-5.27,2.82-8.35v0
		c-1.53-3.08-5.27-4.34-8.35-2.82l-96.35,47.76C538.59,300.64,537.33,304.38,538.85,307.46z"/>
	<path class="st2" d="M693.76,258.57l-18.82,9.33c-11.63,5.76-25.73,1.01-31.49-10.62l0,0c-5.76-11.63-1.01-25.73,10.62-31.49
		l18.82-9.33c11.63-5.76,25.73-1.01,31.49,10.62v0C710.14,238.71,705.39,252.81,693.76,258.57z"/>
	<path class="st3" d="M683.84,250.38l-9.41,4.66c-5.81,2.88-12.86,0.51-15.75-5.31v0c-2.88-5.81-0.51-12.86,5.31-15.75l9.41-4.66
		c5.81-2.88,12.86-0.51,15.75,5.31v0C692.03,240.45,689.65,247.5,683.84,250.38z"/>
	<path class="st0" d="M537.89,351.79L537.89,351.79c-1.45-6.73,2.84-13.36,9.57-14.8L671.7,310.3c6.73-1.45,13.36,2.84,14.8,9.57v0
		c1.45,6.73-2.84,13.36-9.57,14.8l-124.24,26.69C545.96,362.8,539.33,358.51,537.89,351.79z"/>
	<path class="st6" d="M543.45,349.1L543.45,349.1c0.72,3.36,4.04,5.51,7.4,4.78l105.14-22.59c3.36-0.72,5.51-4.04,4.78-7.4l0,0
		c-0.72-3.36-4.04-5.51-7.4-4.78L548.23,341.7C544.87,342.42,542.72,345.73,543.45,349.1z"/>
	<path class="st2" d="M705.62,339.83l-20.53,4.41c-12.69,2.73-25.19-5.35-27.91-18.04v0c-2.73-12.69,5.35-25.19,18.04-27.91
		l20.53-4.41c12.69-2.73,25.19,5.35,27.91,18.04v0C726.38,324.61,718.31,337.1,705.62,339.83z"/>
	<path class="st3" d="M698.02,329.45l-10.27,2.21c-6.34,1.36-12.59-2.68-13.96-9.02v0c-1.36-6.34,2.68-12.59,9.02-13.96l10.27-2.21
		c6.34-1.36,12.59,2.68,13.96,9.02l0,0C708.4,321.83,704.36,328.08,698.02,329.45z"/>
	<polyline class="st8" points="344,509 299,562 275,562 	"/>
	<path class="st0" d="M554.48,271.77L554.48,271.77c-2.6-4.05-1.43-9.45,2.62-12.05l74.84-48.08c4.05-2.6,9.45-1.43,12.05,2.62v0
		c2.6,4.05,1.43,9.45-2.62,12.05l-74.84,48.08C562.48,276.99,557.08,275.82,554.48,271.77z"/>
	<path class="st6" d="M558,269.48L558,269.48c1.3,2.03,4,2.61,6.03,1.31l63.33-40.69c2.03-1.3,2.61-4,1.31-6.03l0,0
		c-1.3-2.03-4-2.61-6.03-1.31l-63.33,40.69C557.29,264.75,556.7,267.45,558,269.48z"/>
	<path class="st0" d="M661.44,222.63l-12.37,7.95c-7.64,4.91-17.82,2.7-22.73-4.95v0c-4.91-7.64-2.7-17.82,4.95-22.73l12.37-7.95
		c7.64-4.91,17.82-2.7,22.73,4.95v0C671.3,207.54,669.09,217.72,661.44,222.63z"/>
	<path class="st7" d="M653.91,217.7l-6.18,3.97c-3.82,2.46-8.91,1.35-11.37-2.47l0,0c-2.46-3.82-1.35-8.91,2.47-11.37l6.18-3.97
		c3.82-2.46,8.91-1.35,11.37,2.47v0C658.83,210.15,657.73,215.24,653.91,217.7z"/>
	<path class="st0" d="M551.31,326.72L551.31,326.72c-1.7-4.51,0.59-9.54,5.09-11.24l83.26-31.31c4.51-1.7,9.54,0.58,11.24,5.09l0,0
		c1.7,4.51-0.59,9.54-5.09,11.24l-83.26,31.31C558.04,333.51,553.01,331.23,551.31,326.72z"/>
	<path class="st6" d="M555.23,325.22L555.23,325.22c0.85,2.25,3.36,3.39,5.62,2.55l70.46-26.5c2.25-0.85,3.39-3.36,2.55-5.62v0
		c-0.85-2.25-3.36-3.39-5.62-2.55l-70.46,26.5C555.53,320.45,554.39,322.97,555.23,325.22z"/>
	<path class="st0" d="M666.2,301.12l-13.76,5.17c-8.5,3.2-17.99-1.1-21.19-9.61v0c-3.2-8.5,1.1-17.99,9.61-21.19l13.76-5.17
		c8.5-3.2,17.99,1.1,21.19,9.61v0C679.01,288.43,674.7,297.92,666.2,301.12z"/>
	<path class="st0" d="M273.77,246.71L273.77,246.71c-3.75,3.02-9.24,2.43-12.27-1.32l-55.8-69.28c-3.02-3.75-2.43-9.24,1.32-12.27
		l0,0c3.75-3.02,9.24-2.43,12.27,1.32l55.8,69.28C278.11,238.2,277.52,243.69,273.77,246.71z"/>
	<path class="st6" d="M271.11,243.46L271.11,243.46c1.88-1.51,2.17-4.26,0.66-6.13l-47.22-58.62c-1.51-1.88-4.26-2.17-6.13-0.66l0,0
		c-1.88,1.51-2.17,4.26-0.66,6.13l47.22,58.62C266.49,244.67,269.24,244.97,271.11,243.46z"/>
	<path class="st0" d="M213.48,145.61l9.22,11.45c5.7,7.08,4.58,17.43-2.49,23.13l0,0c-7.08,5.7-17.43,4.58-23.13-2.49l-9.22-11.45
		c-5.7-7.08-4.58-17.43,2.49-23.13l0,0C197.43,137.42,207.79,138.53,213.48,145.61z"/>
	<path class="st0" d="M260,302.61L260,302.61c-4.21,2.34-9.52,0.83-11.86-3.38l-43.25-77.73c-2.34-4.21-0.83-9.52,3.38-11.86h0
		c4.21-2.34,9.52-0.83,11.86,3.38l43.25,77.73C265.72,294.96,264.21,300.27,260,302.61z"/>
	<path class="st6" d="M257.94,298.95L257.94,298.95c2.1-1.17,2.86-3.83,1.69-5.93l-36.6-65.78c-1.17-2.1-3.83-2.86-5.93-1.69l0,0
		c-2.1,1.17-2.86,3.83-1.69,5.93l36.6,65.78C253.18,299.37,255.83,300.12,257.94,298.95z"/>
	<path class="st0" d="M217.73,192.76l7.15,12.85c4.42,7.94,1.56,17.96-6.38,22.37l0,0c-7.94,4.42-17.96,1.56-22.37-6.38l-7.15-12.85
		c-4.42-7.94-1.56-17.96,6.38-22.37l0,0C203.29,181.96,213.31,184.82,217.73,192.76z"/>
	<path class="st0" d="M256.47,342.87L256.47,342.87c-4.23,2.31-9.53,0.74-11.83-3.49l-42.56-78.11c-2.31-4.23-0.74-9.53,3.49-11.83
		h0c4.23-2.31,9.53-0.74,11.83,3.49l42.56,78.11C262.26,335.27,260.7,340.57,256.47,342.87z"/>
	<path class="st6" d="M254.44,339.19L254.44,339.19c2.12-1.15,2.9-3.8,1.74-5.92l-36.02-66.1c-1.15-2.12-3.8-2.9-5.92-1.74l0,0
		c-2.12,1.15-2.9,3.8-1.74,5.92l36.02,66.1C249.67,339.57,252.32,340.35,254.44,339.19z"/>
	<path class="st0" d="M215.17,232.65l7.03,12.91c4.35,7.98,1.4,17.97-6.57,22.32l0,0c-7.98,4.35-17.97,1.4-22.32-6.57l-7.03-12.91
		c-4.35-7.98-1.4-17.97,6.57-22.32l0,0C200.83,221.73,210.82,224.67,215.17,232.65z"/>
	<path class="st0" d="M255.84,351.77L255.84,351.77c-3.15,3.65-8.65,4.06-12.3,0.91l-67.37-58.08c-3.65-3.15-4.06-8.65-0.91-12.3
		l0,0c3.15-3.65,8.65-4.06,12.3-0.91l67.37,58.08C258.58,342.62,258.99,348.13,255.84,351.77z"/>
	<path class="st6" d="M252.65,349.05L252.65,349.05c1.57-1.82,1.37-4.58-0.46-6.15l-57.02-49.15c-1.82-1.57-4.58-1.37-6.15,0.46l0,0
		c-1.57,1.82-1.37,4.58,0.46,6.15l57.02,49.15C248.32,351.08,251.07,350.87,252.65,349.05z"/>
	<path class="st0" d="M178.33,263.19l11.13,9.6c6.88,5.93,7.65,16.32,1.72,23.2l0,0c-5.93,6.88-16.32,7.65-23.2,1.72l-11.13-9.6
		c-6.88-5.93-7.65-16.32-1.72-23.2l0,0C161.06,258.03,171.45,257.26,178.33,263.19z"/>
	<path class="st0" d="M252.16,361.65L252.16,361.65c-1.73,4.5-6.77,6.74-11.27,5.02l-83.05-31.87c-4.5-1.73-6.74-6.77-5.02-11.27v0
		c1.73-4.5,6.77-6.74,11.27-5.02l83.05,31.87C251.64,352.1,253.89,357.15,252.16,361.65z"/>
	<path class="st6" d="M248.23,360.16L248.23,360.16c0.86-2.25-0.26-4.77-2.51-5.63l-70.28-26.97c-2.25-0.86-4.77,0.26-5.63,2.51l0,0
		c-0.86,2.25,0.26,4.77,2.51,5.63l70.28,26.97C244.85,363.53,247.37,362.41,248.23,360.16z"/>
	<path class="st0" d="M149.25,304.5l13.72,5.27c8.48,3.26,12.72,12.77,9.46,21.25l0,0c-3.25,8.48-12.77,12.72-21.25,9.46
		l-13.72-5.27c-8.48-3.25-12.72-12.77-9.46-21.25l0,0C131.26,305.49,140.77,301.25,149.25,304.5z"/>
	<path class="st0" d="M220.16,551.1L220.16,551.1c-6.47,2.34-13.62-1.02-15.95-7.49l-43.12-119.54c-2.34-6.47,1.02-13.62,7.49-15.95
		h0c6.47-2.34,13.62,1.02,15.95,7.49l43.12,119.54C229.99,541.63,226.64,548.77,220.16,551.1z"/>
	<path class="st6" d="M216.75,545.96L216.75,545.96c3.24-1.17,4.91-4.74,3.75-7.98L184,436.82c-1.17-3.24-4.74-4.91-7.98-3.75v0
		c-3.24,1.17-4.91,4.74-3.75,7.98l36.49,101.16C209.94,545.45,213.52,547.12,216.75,545.96z"/>
	<path class="st9" d="M185.8,386.5l7.13,19.75c4.4,12.21-1.92,25.68-14.13,30.08h0c-12.21,4.4-25.68-1.92-30.08-14.13l-7.13-19.75
		c-4.4-12.21,1.92-25.68,14.13-30.08l0,0C167.93,367.96,181.4,374.29,185.8,386.5z"/>
	<path class="st3" d="M176.53,395.42l3.56,9.88c2.2,6.1-0.96,12.84-7.07,15.04h0c-6.1,2.2-12.84-0.96-15.04-7.07l-3.56-9.88
		c-2.2-6.1,0.96-12.84,7.07-15.04l0,0C167.59,386.15,174.33,389.32,176.53,395.42z"/>
	<path class="st0" d="M142.38,543.52L142.38,543.52c-6.07-3.24-8.38-10.78-5.14-16.86l59.74-112.16c3.24-6.07,10.78-8.38,16.86-5.14
		l0,0c6.07,3.24,8.38,10.78,5.14,16.86l-59.74,112.16C156,544.45,148.45,546.75,142.38,543.52z"/>
	<path class="st6" d="M143.91,537.53L143.91,537.53c3.04,1.62,6.81,0.47,8.43-2.57l50.55-94.92c1.62-3.04,0.47-6.81-2.57-8.43l0,0
		c-3.04-1.62-6.81-0.47-8.43,2.57l-50.55,94.92C139.72,532.14,140.87,535.92,143.91,537.53z"/>
	<path class="st9" d="M241.42,407.63l-9.87,18.53c-6.1,11.46-20.33,15.8-31.79,9.69l0,0c-11.46-6.1-15.8-20.33-9.69-31.79
		l9.87-18.53c6.1-11.46,20.33-15.8,31.79-9.69h0C243.18,381.94,247.52,396.17,241.42,407.63z"/>
	<path class="st3" d="M228.58,406.74l-4.94,9.27c-3.05,5.73-10.17,7.9-15.89,4.85h0c-5.73-3.05-7.9-10.17-4.85-15.89l4.94-9.27
		c3.05-5.73,10.17-7.9,15.89-4.85l0,0C229.47,393.89,231.64,401.01,228.58,406.74z"/>
	<path class="st0" d="M537.16,581.1L537.16,581.1c-6.47,2.34-13.62-1.02-15.95-7.49l-43.12-119.54c-2.34-6.47,1.02-13.62,7.49-15.95
		h0c6.47-2.34,13.62,1.02,15.95,7.49l43.12,119.54C546.99,571.63,543.64,578.77,537.16,581.1z"/>
	<path class="st6" d="M533.75,575.96L533.75,575.96c3.24-1.17,4.91-4.74,3.75-7.98L501,466.82c-1.17-3.24-4.74-4.91-7.98-3.75l0,0
		c-3.24,1.17-4.91,4.74-3.75,7.98l36.49,101.16C526.94,575.45,530.52,577.12,533.75,575.96z"/>
	<path class="st0" d="M459.38,573.52L459.38,573.52c-6.07-3.24-8.38-10.78-5.14-16.86l59.74-112.16c3.24-6.07,10.78-8.38,16.86-5.14
		v0c6.07,3.24,8.38,10.78,5.14,16.86l-59.74,112.16C473,574.45,465.45,576.75,459.38,573.52z"/>
	<path class="st6" d="M460.91,567.53L460.91,567.53c3.04,1.62,6.81,0.47,8.43-2.57l50.55-94.92c1.62-3.04,0.47-6.81-2.57-8.43h0
		c-3.04-1.62-6.81-0.47-8.43,2.57l-50.55,94.92C456.72,562.14,457.87,565.92,460.91,567.53z"/>
	<path class="st0" d="M526.01,355.42L526.01,355.42c0.28-4.81,4.41-8.48,9.22-8.19l88.8,5.24c4.81,0.28,8.48,4.41,8.19,9.22l0,0
		c-0.28,4.81-4.41,8.48-9.22,8.19l-88.8-5.24C529.39,364.35,525.72,360.23,526.01,355.42z"/>
	<path class="st6" d="M530.2,355.64L530.2,355.64c-0.14,2.4,1.69,4.47,4.1,4.61l75.15,4.44c2.4,0.14,4.47-1.69,4.61-4.1l0,0
		c0.14-2.4-1.69-4.47-4.1-4.61l-75.15-4.44C532.41,351.4,530.34,353.24,530.2,355.64z"/>
	<path class="st0" d="M641.38,378.74l-14.67-0.87c-9.07-0.54-15.99-8.32-15.45-17.39v0c0.54-9.07,8.32-15.99,17.39-15.45l14.67,0.87
		c9.07,0.54,15.99,8.32,15.45,17.39v0C658.24,372.35,650.45,379.27,641.38,378.74z"/>
	<path class="st0" d="M532.66,331.04L532.66,331.04c-0.7-4.77,2.6-9.2,7.36-9.9l88.01-12.93c4.77-0.7,9.2,2.6,9.9,7.36l0,0
		c0.7,4.77-2.6,9.2-7.36,9.9l-88.01,12.93C537.79,339.11,533.36,335.81,532.66,331.04z"/>
	<path class="st6" d="M536.81,330.41L536.81,330.41c0.35,2.38,2.57,4.03,4.95,3.68l74.48-10.94c2.38-0.35,4.03-2.57,3.68-4.95v0
		c-0.35-2.38-2.57-4.03-4.95-3.68l-74.48,10.94C538.11,325.81,536.46,328.03,536.81,330.41z"/>
	<path class="st0" d="M650.37,330.41l-14.54,2.14c-8.99,1.32-17.35-4.9-18.67-13.88v0c-1.32-8.99,4.9-17.35,13.88-18.67l14.54-2.14
		c8.99-1.32,17.35,4.9,18.67,13.88v0C665.57,320.73,659.35,329.09,650.37,330.41z"/>
	<path class="st0" d="M537.91,275.01L537.91,275.01c-1.98-4.39-0.03-9.56,4.36-11.54l81.07-36.62c4.39-1.98,9.56-0.03,11.54,4.36
		l0,0c1.98,4.39,0.03,9.56-4.36,11.54l-81.07,36.62C545.06,281.36,539.89,279.41,537.91,275.01z"/>
	<path class="st6" d="M541.73,273.27L541.73,273.27c0.99,2.2,3.58,3.17,5.77,2.18l68.6-30.99c2.2-0.99,3.17-3.57,2.18-5.77v0
		c-0.99-2.2-3.57-3.17-5.77-2.18l-68.6,30.99C541.71,268.49,540.74,271.07,541.73,273.27z"/>
	<path class="st0" d="M650.91,242.05l-13.4,6.05c-8.28,3.74-18.02,0.06-21.76-8.22v0c-3.74-8.28-0.06-18.02,8.22-21.76l13.4-6.05
		c8.28-3.74,18.02-0.06,21.76,8.22v0C662.87,228.57,659.19,238.31,650.91,242.05z"/>
	<path class="st0" d="M478.51,201.79L478.51,201.79c-4.24-2.29-5.81-7.59-3.52-11.82l42.36-78.22c2.29-4.24,7.59-5.81,11.82-3.52v0
		c4.24,2.29,5.81,7.59,3.52,11.82l-42.36,78.22C488.04,202.51,482.75,204.08,478.51,201.79z"/>
	<path class="st6" d="M480.49,198.08L480.49,198.08c2.12,1.15,4.77,0.36,5.91-1.76l35.85-66.19c1.15-2.12,0.36-4.77-1.76-5.91v0
		c-2.12-1.15-4.77-0.36-5.91,1.76l-35.85,66.19C477.58,194.29,478.37,196.94,480.49,198.08z"/>
	<path class="st0" d="M548.5,107.15l-7,12.93c-4.33,7.99-14.31,10.96-22.3,6.63l0,0c-7.99-4.33-10.96-14.31-6.63-22.3l7-12.93
		c4.33-7.99,14.31-10.96,22.3-6.63l0,0C549.86,89.18,552.83,99.16,548.5,107.15z"/>
	<path class="st0" d="M498.8,208.91L498.8,208.91c-3.98-2.72-5-8.14-2.28-12.12l50.17-73.45c2.72-3.98,8.14-5,12.12-2.28v0
		c3.98,2.72,5,8.14,2.28,12.12l-50.17,73.45C508.21,210.6,502.78,211.62,498.8,208.91z"/>
	<path class="st6" d="M501.15,205.43L501.15,205.43c1.99,1.36,4.7,0.85,6.06-1.14l42.46-62.16c1.36-1.99,0.85-4.7-1.14-6.06h0
		c-1.99-1.36-4.7-0.85-6.06,1.14l-42.46,62.16C498.65,201.35,499.16,204.07,501.15,205.43z"/>
	<path class="st0" d="M578.15,121.96l-8.29,12.14c-5.12,7.5-15.36,9.43-22.86,4.31v0c-7.5-5.12-9.43-15.36-4.31-22.86l8.29-12.14
		c5.12-7.5,15.36-9.43,22.86-4.31v0C581.34,104.22,583.27,114.46,578.15,121.96z"/>
	<path class="st0" d="M529.56,227.55L529.56,227.55c-3.07-3.72-2.54-9.21,1.17-12.28l68.6-56.63c3.72-3.07,9.21-2.54,12.28,1.17v0
		c3.07,3.72,2.54,9.21-1.17,12.28l-68.6,56.63C538.12,231.79,532.62,231.27,529.56,227.55z"/>
	<path class="st6" d="M532.78,224.86L532.78,224.86c1.53,1.86,4.28,2.12,6.14,0.59l58.05-47.93c1.86-1.53,2.12-4.28,0.59-6.14v0
		c-1.53-1.86-4.28-2.12-6.14-0.59l-58.05,47.93C531.51,220.25,531.25,223,532.78,224.86z"/>
	<path class="st0" d="M629.92,166.06l-11.34,9.36c-7.01,5.78-17.37,4.79-23.16-2.21l0,0c-5.78-7.01-4.79-17.37,2.21-23.16
		l11.34-9.36c7.01-5.78,17.37-4.79,23.16,2.21v0C637.92,149.9,636.93,160.27,629.92,166.06z"/>
	<path class="st0" d="M423.93,525.42l-94.62-4.01c-6.88-0.29-12.21-6.1-11.92-12.98l10.07-237.48c0.29-6.88,6.1-12.21,12.98-11.92
		l94.62,4.01c6.88,0.29,12.21,6.1,11.92,12.98L436.91,513.5C436.62,520.38,430.81,525.71,423.93,525.42z"/>
	<path class="st6" d="M351.48,512.55l47.31,2.01c3.44,0.15,6.34-2.52,6.49-5.96l8.26-194.69c0.15-3.44-2.52-6.34-5.96-6.49
		l-47.31-2.01c-3.44-0.15-6.34,2.52-6.49,5.96l-8.26,194.69C345.37,509.49,348.04,512.4,351.48,512.55z"/>
	<path class="st0" d="M507.41,217.07l-4.27,100.71c-2.64,62.24-55.24,110.56-117.48,107.92l0,0
		c-62.24-2.64-110.56-55.24-107.92-117.48l4.27-100.71c2.64-62.24,55.24-110.56,117.48-107.92l0,0
		C461.73,102.23,510.05,154.83,507.41,217.07z"/>
	<path class="st7" d="M451.49,216.73l-4.2,99.06c-1.32,31.12-27.62,55.28-58.74,53.96h0c-31.12-1.32-55.28-27.62-53.96-58.74
		l4.2-99.06c1.32-31.12,27.62-55.28,58.74-53.96h0C428.65,159.31,452.81,185.61,451.49,216.73z"/>
	<polyline class="st8" points="420.8,510.4 366.8,574 338,574 	"/>
	<path class="st9" d="M502.8,416.5l7.13,19.75c4.4,12.21-1.92,25.68-14.13,30.08h0c-12.21,4.4-25.68-1.92-30.08-14.13l-7.13-19.75
		c-4.4-12.21,1.92-25.68,14.13-30.08l0,0C484.93,397.96,498.4,404.29,502.8,416.5z"/>
	<path class="st3" d="M492.53,426.42l3.56,9.88c2.2,6.1-0.96,12.84-7.07,15.04h0c-6.1,2.2-12.84-0.96-15.04-7.07l-3.56-9.88
		c-2.2-6.1,0.96-12.84,7.07-15.04l0,0C483.59,417.15,490.33,420.32,492.53,426.42z"/>
	<path class="st9" d="M558.42,437.63l-9.87,18.53c-6.1,11.46-20.33,15.8-31.79,9.69l0,0c-11.46-6.1-15.8-20.33-9.69-31.79
		l9.87-18.53c6.1-11.46,20.33-15.8,31.79-9.69h0C560.18,411.94,564.52,426.17,558.42,437.63z"/>
	<path class="st3" d="M544.58,437.74l-4.94,9.27c-3.05,5.73-10.17,7.9-15.89,4.85l0,0c-5.73-3.05-7.9-10.17-4.85-15.89l4.94-9.27
		c3.05-5.73,10.17-7.9,15.89-4.85l0,0C545.47,424.89,547.64,432.01,544.58,437.74z"/>
</g>
</svg>
