<?xml version="1.0" encoding="utf-8"?>
<!-- Generator: Adobe Illustrator 23.0.4, SVG Export Plug-In . SVG Version: 6.00 Build 0)  -->
<svg version="1.1" xmlns="http://www.w3.org/2000/svg" xmlns:xlink="http://www.w3.org/1999/xlink" x="0px" y="0px"
	 viewBox="0 0 800 600" style="enable-background:new 0 0 800 600;" xml:space="preserve">
<style type="text/css">
	.st0{fill:#D4E7FF;}
	.st1{fill:#F2F2F2;}
	.st2{fill:#B3B3B3;}
	.st3{fill:#808080;}
	.st4{fill:#999999;}
	.st5{fill:#666666;}
	.st6{fill:#CCCCCC;}
	.st7{fill:#E6E6E6;}
	.st8{fill:#E6E6E6;stroke:#666666;stroke-width:2;stroke-miterlimit:10;}
	.st9{fill:#4D4D4D;}
	.st10{fill:#FFFFFF;}
	.st11{fill:#FFFFFF;stroke:#000000;stroke-width:4;stroke-miterlimit:10;}
	.st12{fill:#1A1A1A;}
	.st13{fill:#333333;}
</style>
<g id="wall">
	<rect x="0" class="st0" width="800" height="482"/>
	<rect y="482" class="st1" width="800" height="118"/>
	<rect x="0" y="482" class="st2" width="74" height="59"/>
	<rect x="74" y="541" class="st2" width="74" height="59"/>
	<rect x="148" y="482" class="st2" width="74" height="59"/>
	<rect x="222" y="541" class="st2" width="74" height="59"/>
	<rect x="296" y="482" class="st2" width="74" height="59"/>
	<rect x="370" y="541" class="st2" width="74" height="59"/>
	<rect x="444" y="482" class="st2" width="74" height="59"/>
	<rect x="518" y="541" class="st2" width="74" height="59"/>
	<rect x="592" y="482" class="st2" width="74" height="59"/>
	<rect x="666" y="541" class="st2" width="74" height="59"/>
	<rect x="740" y="482" class="st2" width="59" height="59"/>
</g>
<g id="bed">
	<rect x="596" y="181" class="st3" width="182" height="312"/>
	<rect x="596" y="180" class="st4" width="91" height="313"/>
	<rect x="696" y="300" class="st5" width="10" height="84"/>
	<rect x="668" y="300" class="st5" width="10" height="84"/>
	<rect x="607" y="263" class="st6" width="52" height="88"/>
	<rect x="607" y="263" class="st5" width="52" height="22"/>
	<rect x="19" y="73" class="st7" width="533" height="84"/>
	<rect x="19" y="73" class="st8" width="107" height="84"/>
	<rect x="126" y="73" class="st8" width="107" height="84"/>
	<rect x="233" y="73" class="st8" width="107" height="84"/>
	<rect x="340" y="73" class="st8" width="107" height="84"/>
	<rect x="447" y="73" class="st8" width="107" height="84"/>
	<rect x="99" y="115" class="st9" width="12" height="12"/>
	<rect x="137" y="115" class="st9" width="12" height="12"/>
	<rect x="422" y="115" class="st9" width="12" height="12"/>
	<rect x="459" y="115" class="st9" width="12" height="12"/>
	<circle cx="672.5" cy="95.5" r="49.7"/>
	<circle class="st10" cx="672.5" cy="96.5" r="35.5"/>
	<path class="st11" d="M658,115c-11,10,14-10,14-10l15-32"/>
	<rect x="8" y="363" class="st12" width="569" height="130"/>
	<rect x="8" y="363" class="st5" width="569" height="29"/>
	<rect x="8" y="392" class="st6" width="177" height="101"/>
	<rect x="400" y="392" class="st6" width="177" height="101"/>
	<rect x="209" y="409" class="st13" width="168" height="57"/>
	<rect x="422" y="401" class="st13" width="132" height="30"/>
	<rect x="421" y="440" class="st13" width="132" height="30"/>
	<rect x="31" y="403" class="st13" width="132" height="30"/>
	<rect x="30" y="442" class="st13" width="132" height="30"/>
	<rect x="456" y="321" class="st5" width="9" height="42"/>
	<rect x="434" y="351" class="st2" width="78" height="12"/>
</g>
</svg>
