<?xml version="1.0" encoding="utf-8"?>
<!-- Generator: Adobe Illustrator 23.0.4, SVG Export Plug-In . SVG Version: 6.00 Build 0)  -->
<svg version="1.1" id="Layer_1" xmlns="http://www.w3.org/2000/svg" xmlns:xlink="http://www.w3.org/1999/xlink" x="0px" y="0px"
	 viewBox="0 0 800 600" style="enable-background:new 0 0 800 600;" xml:space="preserve">
<style type="text/css">
	.st0{fill:#C7B299;}
	.st1{fill:#E6E6E6;}
	.st2{fill:#00FFFF;stroke:#000000;stroke-width:8;stroke-miterlimit:10;}
	.st3{fill:#534741;stroke:#B3B3B3;stroke-width:2;stroke-miterlimit:10;}
	.st4{fill:#C1272D;stroke:#B3B3B3;stroke-width:2;stroke-miterlimit:10;}
	.st5{fill:#00FF00;stroke:#B3B3B3;stroke-width:2;stroke-miterlimit:10;}
	.st6{fill:#FBB03B;stroke:#B3B3B3;stroke-width:2;stroke-miterlimit:10;}
	.st7{stroke:#B3B3B3;stroke-width:2;stroke-miterlimit:10;}
	.st8{fill:#FFFFFF;stroke:#B3B3B3;stroke-width:2;stroke-miterlimit:10;}
	.st9{fill:#333333;stroke:#B3B3B3;stroke-width:2;stroke-miterlimit:10;}
</style>
<g id="background">
	<rect y="455" class="st0" width="800" height="145"/>
	<rect class="st1" width="800" height="455"/>
</g>
<g id="Layer_3">
	<rect x="235" y="450" width="24" height="17"/>
	<rect x="505" y="443" width="24" height="24"/>
	<rect x="52" y="113" class="st2" width="168" height="67"/>
	<rect x="510" y="165" width="194" height="15"/>
	<rect x="545" y="108" class="st3" width="28" height="57"/>
	<rect x="573" y="122" class="st4" width="19" height="43"/>
	<rect x="594" y="154" class="st5" width="67" height="10"/>
	<rect x="594" y="139" class="st6" width="50" height="14"/>
	<rect x="559" y="282" width="194" height="15"/>
	<rect x="710" y="225" class="st3" width="28" height="57"/>
	<rect x="691" y="239" class="st4" width="19" height="43"/>
	<rect x="622" y="271" class="st5" width="67" height="10"/>
	<rect x="639" y="256" class="st6" width="50" height="14"/>
	<rect x="377" class="st7" width="12" height="146"/>
	<rect x="309" y="143" class="st7" width="140" height="10"/>
	<rect x="309" y="152" class="st8" width="140" height="40"/>
	<rect x="230" y="370" class="st9" width="299" height="44"/>
	<rect x="249" y="414" class="st9" width="261" height="45"/>
	<rect x="211" y="393" class="st9" width="38" height="63"/>
	<rect x="510" y="393" class="st9" width="38" height="63"/>
	<rect x="249" y="509" width="261" height="21"/>
	<rect x="264" y="530" width="13" height="34"/>
	<rect x="480" y="530" width="16" height="34"/>
</g>
</svg>
